<svg width="21" height="15" viewBox="0 0 21 15" fill="none" xmlns="http://www.w3.org/2000/svg">
<path d="M1.89258 6.66844C1.34271 6.66844 0.896953 7.11419 0.896953 7.66406C0.896953 8.21393 1.34271 8.65969 1.89258 8.65969L1.89258 6.66844ZM20.5178 8.36807C20.9067 7.97926 20.9067 7.34886 20.5178 6.96005L14.1817 0.623927C13.7929 0.235112 13.1625 0.235112 12.7737 0.623928C12.3849 1.01274 12.3849 1.64314 12.7737 2.03195L18.4058 7.66406L12.7737 13.2962C12.3849 13.685 12.3849 14.3154 12.7737 14.7042C13.1625 15.093 13.7929 15.093 14.1817 14.7042L20.5178 8.36807ZM1.89258 8.65969L19.8138 8.65969L19.8138 6.66844L1.89258 6.66844L1.89258 8.65969Z" fill="white"/>
</svg>
