<svg width="39" height="38" viewBox="0 0 39 38" fill="none" xmlns="http://www.w3.org/2000/svg">
<path d="M21.3858 0.0449219C11.801 0.0449219 4.00391 7.91248 4.00391 17.5831C4.00391 18.2957 4.04633 19.0099 4.13022 19.7046L5.7137 19.5107C5.66906 19.1415 5.64152 18.7658 5.62284 18.3889H15.4468C15.4547 18.8725 15.4566 19.3577 15.4759 19.8298L17.0708 19.764C17.0518 19.3139 17.0502 18.8505 17.0423 18.3889H25.7381C25.6941 21.4154 25.4111 24.0621 24.9872 26.2581C23.8178 26.037 22.6117 25.9195 21.385 25.9195V27.5294C22.4939 27.5294 23.5845 27.6338 24.6419 27.8299C23.7384 31.4697 22.4408 33.5117 21.385 33.5117C20.4739 33.5117 19.559 33.4338 18.6662 33.2769L18.3934 34.8631C19.3754 35.035 20.3824 35.1215 21.3853 35.1215C30.9701 35.1215 38.768 27.254 38.768 17.5834C38.7677 7.91236 30.9708 0.0452089 21.3861 0.0452089L21.3858 0.0449219ZM37.1525 16.7768H27.3351C27.2905 13.9427 27.0166 11.0845 26.5247 8.54988C28.5507 7.98548 30.4362 7.0866 32.0878 5.88465C35.0291 8.62748 36.9402 12.4796 37.1529 16.7765L37.1525 16.7768ZM21.3858 1.65417C22.4415 1.65417 23.7385 3.6968 24.6427 7.33657C23.5854 7.53269 22.4954 7.63778 21.3858 7.63778C20.2788 7.63778 19.1917 7.52471 18.1318 7.32571C19.0359 3.69232 20.3307 1.65418 21.3858 1.65418V1.65417ZM16.5935 6.96222C14.9192 6.48566 13.3528 5.76445 11.9609 4.81158C13.884 3.36268 16.1446 2.34954 18.6003 1.90684C17.7738 3.13659 17.102 4.89752 16.5935 6.96222ZM24.1726 1.90749C26.6304 2.35116 28.8946 3.36563 30.8199 4.81738C29.4257 5.77467 27.8587 6.50006 26.1815 6.97596C25.6731 4.90455 25.0011 3.13945 24.1726 1.90749ZM21.3858 9.24771C22.6125 9.24771 23.8187 9.13049 24.988 8.90786C25.4122 11.1045 25.6949 13.7511 25.7389 16.777L17.0334 16.7766C17.0768 13.7502 17.3595 11.1028 17.7837 8.90623C18.9559 9.12887 20.1627 9.24769 21.3859 9.24769L21.3858 9.24771ZM10.6834 5.88678C12.3328 7.08586 14.2227 7.98313 16.2487 8.54849C15.7564 11.0827 15.4823 13.9418 15.4383 16.7771L5.62005 16.7774C5.83215 12.4799 7.74262 8.62846 10.6833 5.88636L10.6834 5.88678ZM26.1811 28.1881C27.8589 28.663 29.4265 29.39 30.8201 30.3461C28.8947 31.7978 26.6306 32.8133 24.1728 33.2566C25.0012 32.0252 25.6727 30.2596 26.1811 28.1882V28.1881ZM32.0873 29.2792C30.4358 28.0779 28.5515 27.1778 26.5242 26.6133C27.0155 24.0798 27.29 21.2213 27.3346 18.3864H37.1528C36.9395 22.6844 35.0283 26.5373 32.0871 29.2791L32.0873 29.2792Z" fill="#D50C3D"/>
<path d="M19.5151 24.86C19.0988 23.1872 18.0458 22.023 16.4687 21.4937C15.751 21.2519 15.0492 21.1289 14.3802 21.1289C12.3599 21.1289 11.0487 22.2021 10.3183 23.07C9.58927 22.2021 8.27737 21.1289 6.25642 21.1289C5.58846 21.1289 4.88503 21.2519 4.16797 21.4937C2.59146 22.0233 1.53791 23.1872 1.12225 24.86C0.455548 27.5444 1.62369 31.3509 3.84032 33.7158C6.91424 36.9926 9.99537 37.7992 10.1246 37.8311L10.3173 37.8797L10.5101 37.8311C10.6406 37.7989 13.7211 36.9926 16.7944 33.7158C19.0129 31.3511 20.182 27.5449 19.515 24.86H19.5151ZM15.6374 32.6088C13.3213 35.0778 10.992 35.9866 10.3168 36.2098C9.64376 35.9888 7.33282 35.0951 5.00059 32.6088C3.15754 30.6434 2.13373 27.4121 2.67129 25.2523C2.95208 24.1241 3.62515 23.3734 4.67326 23.0198C5.2279 22.8339 5.76101 22.7388 6.25739 22.7388C8.55283 22.7388 9.55888 24.7572 9.59876 24.8395L10.3193 26.3641L11.0404 24.8395C11.0502 24.8188 12.0594 22.7388 14.3812 22.7388C14.8776 22.7388 15.4117 22.8339 15.9653 23.0198C17.0141 23.3734 17.6878 24.1237 17.968 25.2523C18.5045 27.4121 17.4804 30.6434 15.6374 32.6088Z" fill="#D50C3D"/>
</svg>
